<?xml version="1.0" encoding="UTF-8"?>
<svg width="321px" height="38px" viewBox="0 0 321 38" version="1.1" xmlns="http://www.w3.org/2000/svg"
    xmlns:xlink="http://www.w3.org/1999/xlink">
    <title>AUTOMOTRON</title>
    <g id="Symbols" stroke="none" stroke-width="1" fill="none" fill-rule="evenodd">
        <g id="logo/big/light-copy" transform="translate(0.000000, -15.000000)" fill="#8F69FF" fill-rule="nonzero">
            <path
                d="M6.76,52 L8.996,40.404 L18.148,40.404 L20.332,52 L26.52,52 L18.772,15.6 L8.476,15.6 L0.728,52 L6.76,52 Z M17.888,39.208 L9.204,39.208 L13.572,16.588 L17.888,39.208 Z M43.68,52.572 C52.364,52.572 56.992,47.892 56.992,38.636 L56.992,15.6 L51.22,15.6 L51.22,38.74 C51.22,44.928 48.36,47.32 43.68,47.32 C38.948,47.32 36.14,44.928 36.14,38.74 L36.14,15.6 L30.368,15.6 L30.368,38.636 C30.368,47.892 34.996,52.572 43.68,52.572 Z M72.904,52 L72.904,20.696 L79.716,20.696 L79.716,15.6 L61.048,15.6 L60.476,20.696 L67.132,20.696 L67.132,52 L72.904,52 Z M101.036,52.572 C114.244,52.572 120.016,43.056 120.016,33.8 C120.016,24.544 114.244,15.028 101.036,15.028 C87.828,15.028 82.108,24.544 82.108,33.8 C82.108,43.056 87.828,52.572 101.036,52.572 Z M101.036,47.268 C92.716,47.268 88.244,41.392 88.244,33.8 C88.244,26.208 92.716,20.332 101.036,20.332 C109.356,20.332 113.88,26.208 113.88,33.8 C113.88,41.392 109.356,47.268 101.036,47.268 Z M129.792,52 L129.792,16.692 L139.828,52 L145.6,52 L155.584,16.536 L155.584,52 L161.356,52 L161.356,15.6 L154.492,15.6 L144.612,50.96 L134.732,15.6 L124.852,15.6 L124.852,52 L129.792,52 Z M185.172,52.572 C198.38,52.572 204.152,43.056 204.152,33.8 C204.152,24.544 198.38,15.028 185.172,15.028 C171.964,15.028 166.244,24.544 166.244,33.8 C166.244,43.056 171.964,52.572 185.172,52.572 Z M185.172,47.268 C176.852,47.268 172.38,41.392 172.38,33.8 C172.38,26.208 176.852,20.332 185.172,20.332 C193.492,20.332 198.016,26.208 198.016,33.8 C198.016,41.392 193.492,47.268 185.172,47.268 Z M218.4,52 L218.4,20.696 L225.212,20.696 L225.212,15.6 L206.544,15.6 L205.972,20.696 L212.628,20.696 L212.628,52 L218.4,52 Z M235.248,52 L235.248,34.58 L237.172,34.58 C239.2,34.58 239.928,34.788 240.76,38.272 L244.036,52 L249.912,52 L246.792,39.364 C246.22,37.024 245.336,34.008 242.736,33.28 C245.856,32.292 248.82,29.9 248.82,25.064 C248.82,19.968 245.96,15.6 238.212,15.6 L229.476,15.6 L229.476,52 L235.248,52 Z M237.64,33.332 L235.248,33.332 L235.248,20.28 L237.536,20.28 C240.344,20.28 242.84,21.112 242.84,26.572 C242.84,30.472 241.644,33.332 237.64,33.332 Z M271.024,52.572 C284.232,52.572 290.004,43.056 290.004,33.8 C290.004,24.544 284.232,15.028 271.024,15.028 C257.816,15.028 252.096,24.544 252.096,33.8 C252.096,43.056 257.816,52.572 271.024,52.572 Z M271.024,47.268 C262.704,47.268 258.232,41.392 258.232,33.8 C258.232,26.208 262.704,20.332 271.024,20.332 C279.344,20.332 283.868,26.208 283.868,33.8 C283.868,41.392 279.344,47.268 271.024,47.268 Z M300.612,52 L300.612,16.536 L314.028,52 L320.892,52 L320.892,15.6 L315.12,15.6 L315.12,51.168 L301.652,15.6 L294.84,15.6 L294.84,52 L300.612,52 Z"
                id="AUTOMOTRON"></path>
        </g>
    </g>
</svg>